<?xml version="1.0" encoding="UTF-8" standalone="no"?><svg xmlns="http://www.w3.org/2000/svg" xmlns:xlink="http://www.w3.org/1999/xlink" contentStyleType="text/css" height="770px" preserveAspectRatio="none" style="width:663px;height:770px;background:#FFFFFF;" version="1.1" viewBox="0 0 663 770" width="663px" zoomAndPan="magnify"><defs/><g><rect fill="#F1F1F1" height="37.6094" rx="12.5" ry="12.5" style="stroke:#181818;stroke-width:1.5;" width="169" x="10" y="365.6563"/><text fill="#000000" font-family="sans-serif" font-size="14" lengthAdjust="spacing" textLength="149" x="20" y="390.1895">Security Services X.800</text><rect fill="#F1F1F1" height="37.6094" rx="12.5" ry="12.5" style="stroke:#181818;stroke-width:1.5;" width="110" x="229" y="48.8047"/><text fill="#000000" font-family="sans-serif" font-size="14" lengthAdjust="spacing" textLength="90" x="239" y="73.3379">Authentication</text><rect fill="#F1F1F1" height="37.6094" rx="12.5" ry="12.5" style="stroke:#181818;stroke-width:1.5;" width="183" x="389" y="20"/><text fill="#000000" font-family="sans-serif" font-size="14" lengthAdjust="spacing" textLength="163" x="399" y="44.5332">Peer Entity Authentication</text><path d="M339,67.6094 L349,67.6094 C364,67.6094 364,38.8047 379,38.8047 L389,38.8047 " fill="none" style="stroke:#181818;stroke-width:1.0;"/><rect fill="#F1F1F1" height="37.6094" rx="12.5" ry="12.5" style="stroke:#181818;stroke-width:1.5;" width="187" x="389" y="77.6094"/><text fill="#000000" font-family="sans-serif" font-size="14" lengthAdjust="spacing" textLength="167" x="399" y="102.1426">Data-Origin Authentication</text><path d="M339,67.6094 L349,67.6094 C364,67.6094 364,96.4141 379,96.4141 L389,96.4141 " fill="none" style="stroke:#181818;stroke-width:1.0;"/><path d="M179,384.4609 L189,384.4609 C204,384.4609 204,67.6094 219,67.6094 L229,67.6094 " fill="none" style="stroke:#181818;stroke-width:1.0;"/><rect fill="#F1F1F1" height="37.6094" rx="12.5" ry="12.5" style="stroke:#181818;stroke-width:1.5;" width="112" x="229" y="106.4141"/><text fill="#000000" font-family="sans-serif" font-size="14" lengthAdjust="spacing" textLength="92" x="239" y="130.9473">Access control</text><path d="M179,384.4609 L189,384.4609 C204,384.4609 204,125.2188 219,125.2188 L229,125.2188 " fill="none" style="stroke:#181818;stroke-width:1.0;"/><rect fill="#F1F1F1" height="37.6094" rx="12.5" ry="12.5" style="stroke:#181818;stroke-width:1.5;" width="140" x="229" y="221.6328"/><text fill="#000000" font-family="sans-serif" font-size="14" lengthAdjust="spacing" textLength="120" x="239" y="246.166">Data confidentiality</text><rect fill="#F1F1F1" height="37.6094" rx="12.5" ry="12.5" style="stroke:#181818;stroke-width:1.5;" width="185" x="419" y="135.2188"/><text fill="#000000" font-family="sans-serif" font-size="14" lengthAdjust="spacing" textLength="165" x="429" y="159.752">Connection Confidentiality</text><path d="M369,240.4375 L379,240.4375 C394,240.4375 394,154.0234 409,154.0234 L419,154.0234 " fill="none" style="stroke:#181818;stroke-width:1.0;"/><rect fill="#F1F1F1" height="37.6094" rx="12.5" ry="12.5" style="stroke:#181818;stroke-width:1.5;" width="210" x="419" y="192.8281"/><text fill="#000000" font-family="sans-serif" font-size="14" lengthAdjust="spacing" textLength="190" x="429" y="217.3613">Connectionless Confidentiality</text><path d="M369,240.4375 L379,240.4375 C394,240.4375 394,211.6328 409,211.6328 L419,211.6328 " fill="none" style="stroke:#181818;stroke-width:1.0;"/><rect fill="#F1F1F1" height="37.6094" rx="12.5" ry="12.5" style="stroke:#181818;stroke-width:1.5;" width="206" x="419" y="250.4375"/><text fill="#000000" font-family="sans-serif" font-size="14" lengthAdjust="spacing" textLength="186" x="429" y="274.9707">Selective-Field Confidentiality</text><path d="M369,240.4375 L379,240.4375 C394,240.4375 394,269.2422 409,269.2422 L419,269.2422 " fill="none" style="stroke:#181818;stroke-width:1.0;"/><rect fill="#F1F1F1" height="37.6094" rx="12.5" ry="12.5" style="stroke:#181818;stroke-width:1.5;" width="187" x="419" y="308.0469"/><text fill="#000000" font-family="sans-serif" font-size="14" lengthAdjust="spacing" textLength="167" x="429" y="332.5801">Traffic-Flow Confidentiality</text><path d="M369,240.4375 L379,240.4375 C394,240.4375 394,326.8516 409,326.8516 L419,326.8516 " fill="none" style="stroke:#181818;stroke-width:1.0;"/><path d="M179,384.4609 L189,384.4609 C204,384.4609 204,240.4375 219,240.4375 L229,240.4375 " fill="none" style="stroke:#181818;stroke-width:1.0;"/><rect fill="#F1F1F1" height="37.6094" rx="12.5" ry="12.5" style="stroke:#181818;stroke-width:1.5;" width="104" x="229" y="480.875"/><text fill="#000000" font-family="sans-serif" font-size="14" lengthAdjust="spacing" textLength="84" x="239" y="505.4082">Data integrity</text><rect fill="#F1F1F1" height="37.6094" rx="12.5" ry="12.5" style="stroke:#181818;stroke-width:1.5;" width="238" x="383" y="365.6563"/><text fill="#000000" font-family="sans-serif" font-size="14" lengthAdjust="spacing" textLength="218" x="393" y="390.1895">Connection Integrity with Recovery</text><path d="M333,499.6797 L343,499.6797 C358,499.6797 358,384.4609 373,384.4609 L383,384.4609 " fill="none" style="stroke:#181818;stroke-width:1.0;"/><rect fill="#F1F1F1" height="37.6094" rx="12.5" ry="12.5" style="stroke:#181818;stroke-width:1.5;" width="258" x="383" y="423.2656"/><text fill="#000000" font-family="sans-serif" font-size="14" lengthAdjust="spacing" textLength="238" x="393" y="447.7988">Connection Integrity without Recovery</text><path d="M333,499.6797 L343,499.6797 C358,499.6797 358,442.0703 373,442.0703 L383,442.0703 " fill="none" style="stroke:#181818;stroke-width:1.0;"/><rect fill="#F1F1F1" height="37.6094" rx="12.5" ry="12.5" style="stroke:#181818;stroke-width:1.5;" width="243" x="383" y="480.875"/><text fill="#000000" font-family="sans-serif" font-size="14" lengthAdjust="spacing" textLength="223" x="393" y="505.4082">Selective-Field Connection Integrity</text><path d="M333,499.6797 L343,499.6797 C358,499.6797 358,499.6797 373,499.6797 L383,499.6797 " fill="none" style="stroke:#181818;stroke-width:1.0;"/><rect fill="#F1F1F1" height="37.6094" rx="12.5" ry="12.5" style="stroke:#181818;stroke-width:1.5;" width="171" x="383" y="538.4844"/><text fill="#000000" font-family="sans-serif" font-size="14" lengthAdjust="spacing" textLength="151" x="393" y="563.0176">Connectionless Integrity</text><path d="M333,499.6797 L343,499.6797 C358,499.6797 358,557.2891 373,557.2891 L383,557.2891 " fill="none" style="stroke:#181818;stroke-width:1.0;"/><rect fill="#F1F1F1" height="37.6094" rx="12.5" ry="12.5" style="stroke:#181818;stroke-width:1.5;" width="268" x="383" y="596.0938"/><text fill="#000000" font-family="sans-serif" font-size="14" lengthAdjust="spacing" textLength="248" x="393" y="620.627">Selective-Field Connectionless Integrity</text><path d="M333,499.6797 L343,499.6797 C358,499.6797 358,614.8984 373,614.8984 L383,614.8984 " fill="none" style="stroke:#181818;stroke-width:1.0;"/><path d="M179,384.4609 L189,384.4609 C204,384.4609 204,499.6797 219,499.6797 L229,499.6797 " fill="none" style="stroke:#181818;stroke-width:1.0;"/><rect fill="#F1F1F1" height="37.6094" rx="12.5" ry="12.5" style="stroke:#181818;stroke-width:1.5;" width="116" x="229" y="682.5078"/><text fill="#000000" font-family="sans-serif" font-size="14" lengthAdjust="spacing" textLength="96" x="239" y="707.041">Nonrepudiation</text><rect fill="#F1F1F1" height="37.6094" rx="12.5" ry="12.5" style="stroke:#181818;stroke-width:1.5;" width="162" x="395" y="653.7031"/><text fill="#000000" font-family="sans-serif" font-size="14" lengthAdjust="spacing" textLength="142" x="405" y="678.2363">Nonrepudiation, Origin</text><path d="M345,701.3125 L355,701.3125 C370,701.3125 370,672.5078 385,672.5078 L395,672.5078 " fill="none" style="stroke:#181818;stroke-width:1.0;"/><rect fill="#F1F1F1" height="37.6094" rx="12.5" ry="12.5" style="stroke:#181818;stroke-width:1.5;" width="195" x="395" y="711.3125"/><text fill="#000000" font-family="sans-serif" font-size="14" lengthAdjust="spacing" textLength="175" x="405" y="735.8457">Nonrepudiation, Destination</text><path d="M345,701.3125 L355,701.3125 C370,701.3125 370,730.1172 385,730.1172 L395,730.1172 " fill="none" style="stroke:#181818;stroke-width:1.0;"/><path d="M179,384.4609 L189,384.4609 C204,384.4609 204,701.3125 219,701.3125 L229,701.3125 " fill="none" style="stroke:#181818;stroke-width:1.0;"/></g></svg>