<?xml version="1.0" encoding="UTF-8" standalone="no"?><svg xmlns="http://www.w3.org/2000/svg" xmlns:xlink="http://www.w3.org/1999/xlink" contentStyleType="text/css" height="487px" preserveAspectRatio="none" style="width:2095px;height:487px;background:#FFFFFF;" version="1.1" viewBox="0 0 2095 487" width="2095px" zoomAndPan="magnify"><defs/><g><line style="stroke:#181818;stroke-width:1.5;" x1="96.5" x2="96.5" y1="80.1875" y2="100.1875"/><rect fill="#F1F1F1" height="50.1875" style="stroke:#181818;stroke-width:1.5;" width="173" x="10" y="100.1875"/><text fill="#000000" font-family="sans-serif" font-size="24" lengthAdjust="spacing" textLength="153" x="20" y="135.1016">Authentication</text><line style="stroke:#181818;stroke-width:1.5;" x1="96.5" x2="106.5" y1="190.4688" y2="190.4688"/><rect fill="#F1F1F1" height="50.1875" style="stroke:#181818;stroke-width:1.5;" width="298" x="106.5" y="165.375"/><text fill="#000000" font-family="sans-serif" font-size="24" lengthAdjust="spacing" textLength="278" x="116.5" y="200.2891">Peer Entity Authentication</text><line style="stroke:#181818;stroke-width:1.5;" x1="96.5" x2="106.5" y1="255.6563" y2="255.6563"/><rect fill="#F1F1F1" height="50.1875" style="stroke:#181818;stroke-width:1.5;" width="303" x="106.5" y="230.5625"/><text fill="#000000" font-family="sans-serif" font-size="24" lengthAdjust="spacing" textLength="283" x="116.5" y="265.4766">Data-Origin Authentication</text><line style="stroke:#181818;stroke-width:1.5;" x1="96.5" x2="96.5" y1="150.375" y2="255.6563"/><line style="stroke:#181818;stroke-width:1.5;" x1="517.5" x2="517.5" y1="80.1875" y2="100.1875"/><rect fill="#F1F1F1" height="50.1875" style="stroke:#181818;stroke-width:1.5;" width="176" x="429.5" y="100.1875"/><text fill="#000000" font-family="sans-serif" font-size="24" lengthAdjust="spacing" textLength="156" x="439.5" y="135.1016">Access control</text><line style="stroke:#181818;stroke-width:1.5;" x1="737.5" x2="737.5" y1="80.1875" y2="100.1875"/><rect fill="#F1F1F1" height="50.1875" style="stroke:#181818;stroke-width:1.5;" width="224" x="625.5" y="100.1875"/><text fill="#000000" font-family="sans-serif" font-size="24" lengthAdjust="spacing" textLength="204" x="635.5" y="135.1016">Data confidentiality</text><line style="stroke:#181818;stroke-width:1.5;" x1="737.5" x2="747.5" y1="190.4688" y2="190.4688"/><rect fill="#F1F1F1" height="50.1875" style="stroke:#181818;stroke-width:1.5;" width="301" x="747.5" y="165.375"/><text fill="#000000" font-family="sans-serif" font-size="24" lengthAdjust="spacing" textLength="281" x="757.5" y="200.2891">Connection Confidentiality</text><line style="stroke:#181818;stroke-width:1.5;" x1="737.5" x2="747.5" y1="255.6563" y2="255.6563"/><rect fill="#F1F1F1" height="50.1875" style="stroke:#181818;stroke-width:1.5;" width="344" x="747.5" y="230.5625"/><text fill="#000000" font-family="sans-serif" font-size="24" lengthAdjust="spacing" textLength="324" x="757.5" y="265.4766">Connectionless Confidentiality</text><line style="stroke:#181818;stroke-width:1.5;" x1="737.5" x2="747.5" y1="320.8438" y2="320.8438"/><rect fill="#F1F1F1" height="50.1875" style="stroke:#181818;stroke-width:1.5;" width="336" x="747.5" y="295.75"/><text fill="#000000" font-family="sans-serif" font-size="24" lengthAdjust="spacing" textLength="316" x="757.5" y="330.6641">Selective-Field Confidentiality</text><line style="stroke:#181818;stroke-width:1.5;" x1="737.5" x2="747.5" y1="386.0313" y2="386.0313"/><rect fill="#F1F1F1" height="50.1875" style="stroke:#181818;stroke-width:1.5;" width="304" x="747.5" y="360.9375"/><text fill="#000000" font-family="sans-serif" font-size="24" lengthAdjust="spacing" textLength="284" x="757.5" y="395.8516">Traffic-Flow Confidentiality</text><line style="stroke:#181818;stroke-width:1.5;" x1="737.5" x2="737.5" y1="150.375" y2="386.0313"/><line style="stroke:#181818;stroke-width:1.5;" x1="1192.5" x2="1192.5" y1="80.1875" y2="100.1875"/><rect fill="#F1F1F1" height="50.1875" style="stroke:#181818;stroke-width:1.5;" width="162" x="1111.5" y="100.1875"/><text fill="#000000" font-family="sans-serif" font-size="24" lengthAdjust="spacing" textLength="142" x="1121.5" y="135.1016">Data integrity</text><line style="stroke:#181818;stroke-width:1.5;" x1="1192.5" x2="1202.5" y1="190.4688" y2="190.4688"/><rect fill="#F1F1F1" height="50.1875" style="stroke:#181818;stroke-width:1.5;" width="391" x="1202.5" y="165.375"/><text fill="#000000" font-family="sans-serif" font-size="24" lengthAdjust="spacing" textLength="371" x="1212.5" y="200.2891">Connection Integrity with Recovery</text><line style="stroke:#181818;stroke-width:1.5;" x1="1192.5" x2="1202.5" y1="255.6563" y2="255.6563"/><rect fill="#F1F1F1" height="50.1875" style="stroke:#181818;stroke-width:1.5;" width="425" x="1202.5" y="230.5625"/><text fill="#000000" font-family="sans-serif" font-size="24" lengthAdjust="spacing" textLength="405" x="1212.5" y="265.4766">Connection Integrity without Recovery</text><line style="stroke:#181818;stroke-width:1.5;" x1="1192.5" x2="1202.5" y1="320.8438" y2="320.8438"/><rect fill="#F1F1F1" height="50.1875" style="stroke:#181818;stroke-width:1.5;" width="399" x="1202.5" y="295.75"/><text fill="#000000" font-family="sans-serif" font-size="24" lengthAdjust="spacing" textLength="379" x="1212.5" y="330.6641">Selective-Field Connection Integrity</text><line style="stroke:#181818;stroke-width:1.5;" x1="1192.5" x2="1202.5" y1="386.0313" y2="386.0313"/><rect fill="#F1F1F1" height="50.1875" style="stroke:#181818;stroke-width:1.5;" width="278" x="1202.5" y="360.9375"/><text fill="#000000" font-family="sans-serif" font-size="24" lengthAdjust="spacing" textLength="258" x="1212.5" y="395.8516">Connectionless Integrity</text><line style="stroke:#181818;stroke-width:1.5;" x1="1192.5" x2="1202.5" y1="451.2188" y2="451.2188"/><rect fill="#F1F1F1" height="50.1875" style="stroke:#181818;stroke-width:1.5;" width="442" x="1202.5" y="426.125"/><text fill="#000000" font-family="sans-serif" font-size="24" lengthAdjust="spacing" textLength="422" x="1212.5" y="461.0391">Selective-Field Connectionless Integrity</text><line style="stroke:#181818;stroke-width:1.5;" x1="1192.5" x2="1192.5" y1="150.375" y2="451.2188"/><line style="stroke:#181818;stroke-width:1.5;" x1="1756.5" x2="1756.5" y1="80.1875" y2="100.1875"/><rect fill="#F1F1F1" height="50.1875" style="stroke:#181818;stroke-width:1.5;" width="184" x="1664.5" y="100.1875"/><text fill="#000000" font-family="sans-serif" font-size="24" lengthAdjust="spacing" textLength="164" x="1674.5" y="135.1016">Nonrepudiation</text><line style="stroke:#181818;stroke-width:1.5;" x1="1756.5" x2="1766.5" y1="190.4688" y2="190.4688"/><rect fill="#F1F1F1" height="50.1875" style="stroke:#181818;stroke-width:1.5;" width="263" x="1766.5" y="165.375"/><text fill="#000000" font-family="sans-serif" font-size="24" lengthAdjust="spacing" textLength="243" x="1776.5" y="200.2891">Nonrepudiation, Origin</text><line style="stroke:#181818;stroke-width:1.5;" x1="1756.5" x2="1766.5" y1="255.6563" y2="255.6563"/><rect fill="#F1F1F1" height="50.1875" style="stroke:#181818;stroke-width:1.5;" width="318" x="1766.5" y="230.5625"/><text fill="#000000" font-family="sans-serif" font-size="24" lengthAdjust="spacing" textLength="298" x="1776.5" y="265.4766">Nonrepudiation, Destination</text><line style="stroke:#181818;stroke-width:1.5;" x1="1756.5" x2="1756.5" y1="150.375" y2="255.6563"/><line style="stroke:#181818;stroke-width:1.5;" x1="96.5" x2="1756.5" y1="80.1875" y2="80.1875"/><rect fill="#F1F1F1" height="50.1875" style="stroke:#181818;stroke-width:1.5;" width="265" x="794" y="10"/><text fill="#000000" font-family="sans-serif" font-size="24" lengthAdjust="spacing" textLength="245" x="804" y="44.9141">Security Services X800</text><line style="stroke:#181818;stroke-width:1.5;" x1="926.5" x2="926.5" y1="60.1875" y2="80.1875"/></g></svg>