<?xml version="1.0" encoding="UTF-8" standalone="no"?><svg xmlns="http://www.w3.org/2000/svg" xmlns:xlink="http://www.w3.org/1999/xlink" contentStyleType="text/css" height="770px" preserveAspectRatio="none" style="width:705px;height:770px;background:#FFFFFF;" version="1.1" viewBox="0 0 705 770" width="705px" zoomAndPan="magnify"><defs/><g><rect fill="#F1F1F1" height="37.6094" rx="12.5" ry="12.5" style="stroke:#181818;stroke-width:1.5;" width="203" x="10" y="365.6563"/><text fill="#000000" font-family="sans-serif" font-size="14" lengthAdjust="spacing" textLength="183" x="20" y="390.1895">Security Mechanisms (X.800)</text><rect fill="#F1F1F1" height="37.6094" rx="12.5" ry="12.5" style="stroke:#181818;stroke-width:1.5;" width="204" x="263" y="221.6328"/><text fill="#000000" font-family="sans-serif" font-size="14" lengthAdjust="spacing" textLength="184" x="273" y="246.166">Specific security mechanisms</text><rect fill="#F1F1F1" height="37.6094" rx="12.5" ry="12.5" style="stroke:#181818;stroke-width:1.5;" width="107" x="517" y="20"/><text fill="#000000" font-family="sans-serif" font-size="14" lengthAdjust="spacing" textLength="87" x="527" y="44.5332">Encipherment</text><path d="M467,240.4375 L477,240.4375 C492,240.4375 492,38.8047 507,38.8047 L517,38.8047 " fill="none" style="stroke:#181818;stroke-width:1.0;"/><rect fill="#F1F1F1" height="37.6094" rx="12.5" ry="12.5" style="stroke:#181818;stroke-width:1.5;" width="124" x="517" y="77.6094"/><text fill="#000000" font-family="sans-serif" font-size="14" lengthAdjust="spacing" textLength="104" x="527" y="102.1426">Digital Signature</text><path d="M467,240.4375 L477,240.4375 C492,240.4375 492,96.4141 507,96.4141 L517,96.4141 " fill="none" style="stroke:#181818;stroke-width:1.0;"/><rect fill="#F1F1F1" height="37.6094" rx="12.5" ry="12.5" style="stroke:#181818;stroke-width:1.5;" width="115" x="517" y="135.2188"/><text fill="#000000" font-family="sans-serif" font-size="14" lengthAdjust="spacing" textLength="95" x="527" y="159.752">Access Control</text><path d="M467,240.4375 L477,240.4375 C492,240.4375 492,154.0234 507,154.0234 L517,154.0234 " fill="none" style="stroke:#181818;stroke-width:1.0;"/><rect fill="#F1F1F1" height="37.6094" rx="12.5" ry="12.5" style="stroke:#181818;stroke-width:1.5;" width="104" x="517" y="192.8281"/><text fill="#000000" font-family="sans-serif" font-size="14" lengthAdjust="spacing" textLength="84" x="527" y="217.3613">Data Integrity</text><path d="M467,240.4375 L477,240.4375 C492,240.4375 492,211.6328 507,211.6328 L517,211.6328 " fill="none" style="stroke:#181818;stroke-width:1.0;"/><rect fill="#F1F1F1" height="37.6094" rx="12.5" ry="12.5" style="stroke:#181818;stroke-width:1.5;" width="176" x="517" y="250.4375"/><text fill="#000000" font-family="sans-serif" font-size="14" lengthAdjust="spacing" textLength="156" x="527" y="274.9707">Authentication Exchange</text><path d="M467,240.4375 L477,240.4375 C492,240.4375 492,269.2422 507,269.2422 L517,269.2422 " fill="none" style="stroke:#181818;stroke-width:1.0;"/><rect fill="#F1F1F1" height="37.6094" rx="12.5" ry="12.5" style="stroke:#181818;stroke-width:1.5;" width="116" x="517" y="308.0469"/><text fill="#000000" font-family="sans-serif" font-size="14" lengthAdjust="spacing" textLength="96" x="527" y="332.5801">Traffic Padding</text><path d="M467,240.4375 L477,240.4375 C492,240.4375 492,326.8516 507,326.8516 L517,326.8516 " fill="none" style="stroke:#181818;stroke-width:1.0;"/><rect fill="#F1F1F1" height="37.6094" rx="12.5" ry="12.5" style="stroke:#181818;stroke-width:1.5;" width="119" x="517" y="365.6563"/><text fill="#000000" font-family="sans-serif" font-size="14" lengthAdjust="spacing" textLength="99" x="527" y="390.1895">Routing Control</text><path d="M467,240.4375 L477,240.4375 C492,240.4375 492,384.4609 507,384.4609 L517,384.4609 " fill="none" style="stroke:#181818;stroke-width:1.0;"/><rect fill="#F1F1F1" height="37.6094" rx="12.5" ry="12.5" style="stroke:#181818;stroke-width:1.5;" width="94" x="517" y="423.2656"/><text fill="#000000" font-family="sans-serif" font-size="14" lengthAdjust="spacing" textLength="74" x="527" y="447.7988">Notarization</text><path d="M467,240.4375 L477,240.4375 C492,240.4375 492,442.0703 507,442.0703 L517,442.0703 " fill="none" style="stroke:#181818;stroke-width:1.0;"/><path d="M213,384.4609 L223,384.4609 C238,384.4609 238,240.4375 253,240.4375 L263,240.4375 " fill="none" style="stroke:#181818;stroke-width:1.0;"/><rect fill="#F1F1F1" height="37.6094" rx="12.5" ry="12.5" style="stroke:#181818;stroke-width:1.5;" width="217" x="263" y="596.0938"/><text fill="#000000" font-family="sans-serif" font-size="14" lengthAdjust="spacing" textLength="197" x="273" y="620.627">Pervasive security mechanisms</text><rect fill="#F1F1F1" height="37.6094" rx="12.5" ry="12.5" style="stroke:#181818;stroke-width:1.5;" width="153" x="530" y="480.875"/><text fill="#000000" font-family="sans-serif" font-size="14" lengthAdjust="spacing" textLength="133" x="540" y="505.4082">Trusted Functionality</text><path d="M480,614.8984 L490,614.8984 C505,614.8984 505,499.6797 520,499.6797 L530,499.6797 " fill="none" style="stroke:#181818;stroke-width:1.0;"/><rect fill="#F1F1F1" height="37.6094" rx="12.5" ry="12.5" style="stroke:#181818;stroke-width:1.5;" width="110" x="530" y="538.4844"/><text fill="#000000" font-family="sans-serif" font-size="14" lengthAdjust="spacing" textLength="90" x="540" y="563.0176">Security Label</text><path d="M480,614.8984 L490,614.8984 C505,614.8984 505,557.2891 520,557.2891 L530,557.2891 " fill="none" style="stroke:#181818;stroke-width:1.0;"/><rect fill="#F1F1F1" height="37.6094" rx="12.5" ry="12.5" style="stroke:#181818;stroke-width:1.5;" width="120" x="530" y="596.0938"/><text fill="#000000" font-family="sans-serif" font-size="14" lengthAdjust="spacing" textLength="100" x="540" y="620.627">Event Detection</text><path d="M480,614.8984 L490,614.8984 C505,614.8984 505,614.8984 520,614.8984 L530,614.8984 " fill="none" style="stroke:#181818;stroke-width:1.0;"/><rect fill="#F1F1F1" height="37.6094" rx="12.5" ry="12.5" style="stroke:#181818;stroke-width:1.5;" width="139" x="530" y="653.7031"/><text fill="#000000" font-family="sans-serif" font-size="14" lengthAdjust="spacing" textLength="119" x="540" y="678.2363">Security Audit Trail</text><path d="M480,614.8984 L490,614.8984 C505,614.8984 505,672.5078 520,672.5078 L530,672.5078 " fill="none" style="stroke:#181818;stroke-width:1.0;"/><rect fill="#F1F1F1" height="37.6094" rx="12.5" ry="12.5" style="stroke:#181818;stroke-width:1.5;" width="135" x="530" y="711.3125"/><text fill="#000000" font-family="sans-serif" font-size="14" lengthAdjust="spacing" textLength="115" x="540" y="735.8457">Security Recovery</text><path d="M480,614.8984 L490,614.8984 C505,614.8984 505,730.1172 520,730.1172 L530,730.1172 " fill="none" style="stroke:#181818;stroke-width:1.0;"/><path d="M213,384.4609 L223,384.4609 C238,384.4609 238,614.8984 253,614.8984 L263,614.8984 " fill="none" style="stroke:#181818;stroke-width:1.0;"/></g></svg>